<?xml version="1.0" encoding="utf-8" ?>
<svg xmlns="http://www.w3.org/2000/svg" xmlns:xlink="http://www.w3.org/1999/xlink" width="1024" height="1024">
	<path fill="#0D3B66" transform="translate(6.10352e-05 3.05176e-05)" d="M0 0L1024 0L1024 1024L0 1024L0 0ZM304.571 223.017C280.399 223.021 259.228 222.163 240.66 240.556C222.207 258.836 223.885 278.069 223.853 301.865L223.845 340.889C223.885 375.321 223.57 409.808 224.011 444.234C223.945 458.626 223.407 473.27 224.13 487.633L223.969 565.772C223.963 583.037 223.608 600.391 224.068 617.645C237.311 605.032 250.407 592.265 263.352 579.346C269.06 573.716 274.913 566.834 281.17 561.911C281.381 561.876 281.598 561.866 281.804 561.805C283.857 561.189 286.191 558.332 287.758 556.804C287.808 557.807 287.7 558.582 287.507 559.551C285.873 567.761 291.796 577.103 295.795 583.821C296.681 584.24 297.528 584.649 298.384 585.129C298.589 585.901 298.683 585.681 298.322 586.357C297.931 587.087 297.693 587.267 297.102 587.771C296.149 588.585 295.956 589.215 295.577 590.39C272.466 614.766 247.348 637.26 224.191 661.596L224.032 718.445C224.027 730.86 222.82 745.1 225.522 757.245C227.663 766.87 232.098 776.184 239.01 783.297C250.137 794.745 265.024 799.838 280.74 799.936L303.708 799.878C303.951 778.143 304.039 756.406 303.973 734.669C303.972 725.098 303.437 715.313 303.976 705.77C304.14 702.849 304.42 699.447 305.732 696.814C310.226 687.798 332.5 667.57 341.05 659.238C341.871 658.445 342.71 657.67 343.566 656.914C346.655 655.793 348.858 653.039 351.159 650.768C351.708 652.989 352.171 655.648 353.233 657.673C355.836 662.636 361.859 667.729 365.847 671.591C366.462 672.186 367.916 673.345 367.531 674.284C367.438 674.509 367.337 674.734 367.2 674.936C365.634 677.261 363.21 678.157 362.079 680.993C354.017 690.614 344.374 699.335 335.494 708.207C335.399 738.736 335.048 769.364 335.683 799.881C358.931 798.776 382.436 799.464 405.716 799.486C414.414 799.494 423.574 800.068 432.226 799.388C441.55 800.183 450.951 799.937 460.3 799.955C463.278 799.961 466.506 800.478 469.433 800.011L469.858 799.631L547.146 799.487C560.19 799.499 573.233 799.658 586.273 799.967C592.708 800.089 608.667 801.191 614.283 799.626L704.544 799.35C717.017 799.34 729.549 799.712 742.013 799.501C758.184 799.226 772.818 792.62 783.985 780.894C792.334 772.128 798.527 761.041 800.54 749.029C802.699 736.158 801.491 720.206 801.473 706.976L801.468 634.795L801.519 473.206C801.481 451.574 801.989 429.855 801.509 408.233C802.265 394.61 801.653 380.623 801.617 366.973L801.476 292.37C801.414 271.918 798.611 255.011 783.422 240.089C775.28 232.232 765.09 226.826 754.018 224.49C740.101 221.47 715.531 222.965 700.466 222.969C672.798 222.976 645.111 222.682 617.446 222.995C600.015 222.557 582.475 222.964 565.034 222.971L463.346 223L433.058 222.978L334.802 223.017L304.571 223.017Z"/>
	<path fill="#FEFDFB" transform="translate(6.10352e-05 3.05176e-05)" d="M224.011 444.234C223.57 409.808 223.885 375.321 223.845 340.889L223.853 301.865C223.885 278.069 222.207 258.836 240.66 240.556C259.228 222.163 280.399 223.021 304.571 223.017C305.081 269.884 305.107 316.755 304.65 363.623C301.733 367.633 297.709 371.137 294.171 374.607L271.697 396.633C268.274 400.019 264.245 403.458 261.335 407.256C259.118 409.335 256.841 411.362 254.85 413.663C244.275 423.444 234.07 433.921 224.011 444.234Z"/>
	<defs>
		<linearGradient id="gradient_0" gradientUnits="userSpaceOnUse" x1="366.80844" y1="289.70932" x2="233.70471" y2="357.18042">
			<stop offset="0" stop-color="#EAB356"/>
			<stop offset="1" stop-color="#7D7D6D"/>
		</linearGradient>
	</defs>
	<path fill="url(#gradient_0)" transform="translate(6.10352e-05 3.05176e-05)" d="M304.571 223.017L334.802 223.017C334.629 259.299 334.701 295.581 335.018 331.862C335.023 346.856 335.647 362.14 334.887 377.098C332.033 382.276 289.2 423.723 282.586 429.546L281.983 429.359C281.33 429.884 280.762 430.388 279.974 430.704C279.354 430.952 278.958 430.707 278.38 430.451C271.288 427.315 263.305 416.577 260.75 409.48L261.579 408.119L261.335 407.256C264.245 403.458 268.274 400.019 271.697 396.633L294.171 374.607C297.709 371.137 301.733 367.633 304.65 363.623C305.107 316.755 305.081 269.884 304.571 223.017Z"/>
	<path fill="#FEFDFB" transform="translate(6.10352e-05 3.05176e-05)" d="M334.802 223.017L433.058 222.978L432.969 357.485L432.97 390.514C432.971 396.964 433.629 404.201 432.319 410.505C427.547 416.448 421.812 421.777 416.485 427.238L387.513 456.735C383.147 461.142 377.759 465.562 374.002 470.414C368.609 474.971 363.713 480.469 358.706 485.459C350.333 493.783 341.915 502.062 333.453 510.296L301.991 541.429C295.096 548.148 287.496 554.7 281.17 561.911C274.913 566.834 269.06 573.716 263.352 579.346C250.407 592.265 237.311 605.032 224.068 617.645C223.608 600.391 223.963 583.037 223.969 565.772L224.13 487.633C224.815 486.098 267.644 444.636 272.506 439.761C275.904 436.437 279.529 433.188 282.586 429.546C289.2 423.723 332.033 382.276 334.887 377.098C335.647 362.14 335.023 346.856 335.018 331.862C334.701 295.581 334.629 259.299 334.802 223.017Z"/>
	<defs>
		<linearGradient id="gradient_1" gradientUnits="userSpaceOnUse" x1="571.41132" y1="257.17828" x2="415.37411" y2="495.39777">
			<stop offset="0" stop-color="#F9C34D"/>
			<stop offset="1" stop-color="#D2A45E"/>
		</linearGradient>
	</defs>
	<path fill="url(#gradient_1)" transform="translate(6.10352e-05 3.05176e-05)" d="M433.058 222.978L463.346 223L463.447 317.663C463.189 340.132 463.129 362.602 463.266 385.072C476.63 384.961 490.028 384.541 503.386 384.666C518.514 384.808 533.672 385.475 548.795 384.772C553.807 379.857 558.915 375.006 563.784 369.951C556.695 357.788 554.84 344.834 558.456 331.163C562.303 316.656 571.811 304.299 584.849 296.864C588.113 295.013 591.834 293.374 595.433 292.328C595.719 292.359 596.005 292.397 596.291 292.422C599.505 292.7 604.381 289.686 606.934 292.014C607.221 294.098 607.253 296.656 609.229 297.896C611.271 299.178 619.014 297.928 621.645 297.762C626.346 297.466 629.497 302.121 633.522 303.943C638.821 306.342 644.617 307.062 649.873 309.358L651.285 311.055L652.727 310.615C661.944 322.772 666.61 335.452 664.581 350.829C662.714 364.98 654.974 378.958 643.533 387.594C632.275 396.091 616.866 399.442 602.983 397.493C596.465 396.579 590.043 394.321 584.27 391.174C579.743 395.378 574.649 399.731 570.672 404.44C567.161 407.738 563.583 411.981 559.505 414.513C527.755 414.973 495.931 414.383 464.169 414.477C463.342 419.161 462.34 422.836 459.318 426.677C455.18 431.937 449.557 436.62 444.812 441.369L417.273 469.152L395.838 490.961C393.092 493.74 390.062 497.464 386.954 499.792C386.797 499.91 386.614 499.99 386.444 500.088L386.359 499.73C388.138 495.226 395.734 491.252 398.295 486.838C399.104 485.444 398.767 484.154 398.394 482.66C397.394 478.653 390.17 461.522 387.409 459.967C382.399 460.835 379.375 467.847 374.73 470.092C374.491 470.208 374.245 470.307 374.002 470.414C377.759 465.562 383.147 461.142 387.513 456.735L416.485 427.238C421.812 421.777 427.547 416.448 432.319 410.505C433.629 404.201 432.971 396.964 432.97 390.514L432.969 357.485L433.058 222.978ZM605.891 319.671C592.133 322.494 583.282 335.952 586.138 349.703C588.995 363.455 602.474 372.274 616.218 369.384C629.916 366.505 638.698 353.081 635.852 339.377C633.005 325.672 619.603 316.857 605.891 319.671Z"/>
	<defs>
		<linearGradient id="gradient_2" gradientUnits="userSpaceOnUse" x1="764.50983" y1="345.29886" x2="404.98984" y2="744.96796">
			<stop offset="0" stop-color="#FDE38E"/>
			<stop offset="1" stop-color="white"/>
		</linearGradient>
	</defs>
	<path fill="url(#gradient_2)" transform="translate(6.10352e-05 3.05176e-05)" d="M463.346 223L565.034 222.971C582.475 222.964 600.015 222.557 617.446 222.995C621.572 223.722 625.725 224.284 629.896 224.681L629.571 225.227L630.362 224.764C630.562 225.038 630.758 225.315 630.96 225.587C632.589 227.765 634.914 229.325 636.704 231.364C637.96 232.796 638.799 234.575 640.014 236.057C644.921 242.042 650.167 248.132 655.369 253.858C659.896 258.842 665.097 263.315 669.932 268C673.289 271.253 676.35 274.807 679.741 278.02C684.076 282.128 688.685 286.36 693.217 290.236C694.582 291.403 696.148 292.299 697.416 293.584C700.664 296.877 703.161 300.89 706.292 304.287C708.553 306.74 711.403 308.663 713.742 311.124C716.143 313.65 718.125 316.816 720.69 319.148C722.415 320.717 724.802 321.459 726.404 323.144C730.413 327.363 733.983 332.093 737.969 336.37C743.516 342.323 749.296 348.668 755.282 354.165C758.368 356.999 761.715 359.534 764.826 362.336C767.931 365.133 770.888 368.761 774.776 370.404L775.659 370.785C783.507 374.128 794.518 375.236 798.39 384.119C801.65 391.598 799.632 400.337 801.509 408.233C801.989 429.855 801.481 451.574 801.519 473.206L801.468 634.795L801.473 706.976C801.491 720.206 802.699 736.158 800.54 749.029C798.527 761.041 792.334 772.128 783.985 780.894C772.818 792.62 758.184 799.226 742.013 799.501C729.549 799.712 717.017 799.34 704.544 799.35L614.283 799.626C606.004 799.429 597.712 799.611 589.432 799.698C590.024 798.791 590.635 797.895 591.238 796.994C606.904 782.35 622.04 766.996 636.94 751.575C639.586 748.738 642.266 745.934 644.98 743.164C648.827 745.862 653.096 747.902 657.611 749.2C670.715 753.021 686.529 751.547 698.475 744.868C711.799 737.418 720.392 725.922 724.482 711.29C728.451 697.086 726.755 682.372 719.447 669.549C712.296 656.877 700.398 647.57 686.377 643.682C671.132 639.55 656.34 641.891 642.746 649.81C630.272 657.076 622.069 668.993 618.568 682.942C615.307 695.934 616.463 710.255 623.46 721.761C621.887 723.342 620.369 724.976 618.908 726.661L582.776 762.379C577.702 767.383 571.541 772.338 567.12 777.849C561.748 782.385 549.787 793.439 547.146 799.487L469.858 799.631L463.564 799.59L463.487 775.754C464.36 767.329 464.069 749.794 463.531 741.165C463.629 740.525 463.749 739.893 463.85 739.255C464.076 737.822 464.261 737.186 465.238 736.087C471.607 728.916 478.743 722.287 485.582 715.563L508.327 692.82C536.884 664.594 565.131 636.057 593.064 607.214C596.713 604.488 599.962 600.468 603.241 597.253C611.046 589.598 618.908 582.03 626.561 574.22C632.776 567.878 638.975 560.579 646.115 555.29C657.733 560.45 668.754 562.196 681.392 560.11C695.675 557.752 707.121 549.91 715.474 538.18C723.68 526.655 727.247 510.936 724.747 496.998C722.248 483.063 713.463 469.562 701.756 461.612C689.996 453.627 674.905 450.266 660.927 453.007C648.806 455.384 637.316 461.615 629.794 471.548C627.112 475.089 625.142 478.941 622.665 482.569C622.55 482.738 622.427 482.9 622.308 483.066C622.198 480.918 623.328 479.001 624.42 477.219C632.071 464.733 643.741 456.157 657.941 452.652C666.168 450.621 684.446 450.587 691.714 455.168C693.163 456.081 694.736 456.663 696.343 457.247L697.237 456.377C694.514 451.864 690.176 449.079 685.891 446.244C682.626 444.085 679.074 441.915 676.234 439.209C673.553 436.655 671.295 433.422 668.85 430.627C663.796 424.851 652.049 411.966 645.764 408.855C640.101 406.053 637.921 399.92 634.194 395.17C631.668 395.219 628.835 396.209 626.36 396.787C619.478 398.392 611.941 399.738 604.881 398.782C598.709 397.946 593.712 396.22 587.918 393.979C587.081 393.655 585.31 392.951 584.431 393.189C579.544 394.515 576.536 402.411 571.481 404.186C571.214 404.28 570.941 404.356 570.672 404.44C574.649 399.731 579.743 395.378 584.27 391.174C590.043 394.321 596.465 396.579 602.983 397.493C616.866 399.442 632.275 396.091 643.533 387.594C654.974 378.958 662.714 364.98 664.581 350.829C666.61 335.452 661.944 322.772 652.727 310.615C648.433 304.854 642.93 300.103 636.603 296.698C623.599 289.658 609.599 288.199 595.433 292.328C591.834 293.374 588.113 295.013 584.849 296.864C571.811 304.299 562.303 316.656 558.456 331.163C554.84 344.834 556.695 357.788 563.784 369.951C558.915 375.006 553.807 379.857 548.795 384.772C533.672 385.475 518.514 384.808 503.386 384.666C490.028 384.541 476.63 384.961 463.266 385.072C463.129 362.602 463.189 340.132 463.447 317.663L463.346 223Z"/>
	<path fill="#F4D35E" transform="translate(6.10352e-05 3.05176e-05)" d="M617.446 222.995C645.111 222.682 672.798 222.976 700.466 222.969C715.531 222.965 740.101 221.47 754.018 224.49C765.09 226.826 775.28 232.232 783.422 240.089C798.611 255.011 801.414 271.918 801.476 292.37L801.617 366.973C801.653 380.623 802.265 394.61 801.509 408.233C799.632 400.337 801.65 391.598 798.39 384.119C794.518 375.236 783.507 374.128 775.659 370.785L774.776 370.404C770.888 368.761 767.931 365.133 764.826 362.336C761.715 359.534 758.368 356.999 755.282 354.165C749.296 348.668 743.516 342.323 737.969 336.37C733.983 332.093 730.413 327.363 726.404 323.144C724.802 321.459 722.415 320.717 720.69 319.148C718.125 316.816 716.143 313.65 713.742 311.124C711.403 308.663 708.553 306.74 706.292 304.287C703.161 300.89 700.664 296.877 697.416 293.584C696.148 292.299 694.582 291.403 693.217 290.236C688.685 286.36 684.076 282.128 679.741 278.02C676.35 274.807 673.289 271.253 669.932 268C665.097 263.315 659.896 258.842 655.369 253.858C650.167 248.132 644.921 242.042 640.014 236.057C638.799 234.575 637.96 232.796 636.704 231.364C634.914 229.325 632.589 227.765 630.96 225.587C630.758 225.315 630.562 225.038 630.362 224.764L629.571 225.227L629.896 224.681C625.725 224.284 621.572 223.722 617.446 222.995Z"/>
	<path fill="#F4D35E" transform="translate(6.10352e-05 3.05176e-05)" d="M595.433 292.328C609.599 288.199 623.599 289.658 636.603 296.698C642.93 300.103 648.433 304.854 652.727 310.615L651.285 311.055L649.873 309.358C644.617 307.062 638.821 306.342 633.522 303.943C629.497 302.121 626.346 297.466 621.645 297.762C619.014 297.928 611.271 299.178 609.229 297.896C607.253 296.656 607.221 294.098 606.934 292.014C604.381 289.686 599.505 292.7 596.291 292.422C596.005 292.397 595.719 292.359 595.433 292.328Z"/>
	<path fill="#FAF0CA" transform="translate(6.10352e-05 3.05176e-05)" d="M616.218 369.384C602.474 372.274 588.995 363.455 586.138 349.703C583.282 335.952 592.133 322.494 605.891 319.671C619.603 316.857 633.005 325.672 635.852 339.377C638.698 353.081 629.916 366.505 616.218 369.384Z"/>
	<path fill="#FEFDFB" transform="translate(6.10352e-05 3.05176e-05)" d="M570.672 404.44C570.941 404.356 571.214 404.28 571.481 404.186C576.536 402.411 579.544 394.515 584.431 393.189C585.31 392.951 587.081 393.655 587.918 393.979C593.712 396.22 598.709 397.946 604.881 398.782C611.941 399.738 619.478 398.392 626.36 396.787C628.835 396.209 631.668 395.219 634.194 395.17C637.921 399.92 640.101 406.053 645.764 408.855C652.049 411.966 663.796 424.851 668.85 430.627C671.295 433.422 673.553 436.655 676.234 439.209C679.074 441.915 682.626 444.085 685.891 446.244C690.176 449.079 694.514 451.864 697.237 456.377L696.343 457.247C694.736 456.663 693.163 456.081 691.714 455.168C684.446 450.587 666.168 450.621 657.941 452.652C643.741 456.157 632.071 464.733 624.42 477.219C623.328 479.001 622.198 480.918 622.308 483.066C617.008 497.666 615.698 512.525 622.49 526.918C623.532 529.126 624.705 531.171 626.08 533.191C615.165 544.452 604.104 555.57 592.898 566.541C588.718 570.64 574.799 583.034 572.435 587.058C561.464 596.83 551.324 607.965 540.906 618.346L483.368 675.598L453.571 705.195C448.772 709.963 443.222 714.601 439.088 719.93C434.336 724.201 432.737 730.53 432.445 736.679C432.17 742.445 431.935 749.057 432.554 754.78C432.365 769.646 432.565 784.527 432.226 799.388C423.574 800.068 414.414 799.494 405.716 799.486C382.436 799.464 358.931 798.776 335.683 799.881C335.048 769.364 335.399 738.736 335.494 708.207C344.374 699.335 354.017 690.614 362.079 680.993C365.559 678.437 368.757 674.695 371.812 671.62L388.346 654.978L411.637 631.794C415.284 628.166 419.221 624.7 422.617 620.839C427.103 617.178 431.16 612.597 435.253 608.501C443.45 600.4 451.521 592.17 459.46 583.816C463.398 586.396 467.371 588.443 471.879 589.849C485.394 594.065 499.571 592.158 511.99 585.613C525.422 578.534 536.231 566.575 540.586 551.893C544.813 537.644 542.449 521.919 535.267 509.055C528.176 496.356 515.712 487.455 501.839 483.555C487.358 479.484 471.837 480.807 458.697 488.349C445.924 495.623 436.598 507.712 432.804 521.913C429.064 536.038 431.281 549.732 438.549 562.276C425.611 574.524 412.845 587.344 400.674 600.359C388.027 611.503 376.371 624.253 364.432 636.183C357.613 642.997 349.704 649.528 343.566 656.914C342.71 657.67 341.871 658.445 341.05 659.238C332.5 667.57 310.226 687.798 305.732 696.814C304.42 699.447 304.14 702.849 303.976 705.77C303.437 715.313 303.972 725.098 303.973 734.669C304.039 756.406 303.951 778.143 303.708 799.878L280.74 799.936C265.024 799.838 250.137 794.745 239.01 783.297C232.098 776.184 227.663 766.87 225.522 757.245C222.82 745.1 224.027 730.86 224.032 718.445L224.191 661.596C247.348 637.26 272.466 614.766 295.577 590.39C300.177 586.647 304.364 581.959 308.583 577.781L335.319 551.018C352.265 534.014 370.138 517.703 386.444 500.088C386.614 499.99 386.797 499.91 386.954 499.792C390.062 497.464 393.092 493.74 395.838 490.961L417.273 469.152L444.812 441.369C449.557 436.62 455.18 431.937 459.318 426.677C462.34 422.836 463.342 419.161 464.169 414.477C495.931 414.383 527.755 414.973 559.505 414.513C563.583 411.981 567.161 407.738 570.672 404.44Z"/>
	<path fill="#74746E" transform="translate(6.10352e-05 3.05176e-05)" d="M254.85 413.663C256.841 411.362 259.118 409.335 261.335 407.256L261.579 408.119L260.75 409.48C263.305 416.577 271.288 427.315 278.38 430.451C278.958 430.707 279.354 430.952 279.974 430.704C280.762 430.388 281.33 429.884 281.983 429.359L282.586 429.546C279.529 433.188 275.904 436.437 272.506 439.761C271.742 439.541 271.111 439.394 270.43 438.967C263.895 434.866 259.999 426.776 256.959 419.983C256.347 418.616 255.258 416.774 255.097 415.329C254.955 414.056 255.263 415.775 254.956 414.186C254.923 414.011 254.886 413.838 254.85 413.663Z"/>
	<defs>
		<linearGradient id="gradient_3" gradientUnits="userSpaceOnUse" x1="265.40155" y1="430.48404" x2="213.7634" y2="468.89328">
			<stop offset="0" stop-color="#6C7572"/>
			<stop offset="1" stop-color="#185887"/>
		</linearGradient>
	</defs>
	<path fill="url(#gradient_3)" transform="translate(6.10352e-05 3.05176e-05)" d="M224.011 444.234C234.07 433.921 244.275 423.444 254.85 413.663C254.886 413.838 254.923 414.011 254.956 414.186C255.263 415.775 254.955 414.056 255.097 415.329C255.258 416.774 256.347 418.616 256.959 419.983C259.999 426.776 263.895 434.866 270.43 438.967C271.111 439.394 271.742 439.541 272.506 439.761C267.644 444.636 224.815 486.098 224.13 487.633C223.407 473.27 223.945 458.626 224.011 444.234Z"/>
	<path fill="#F4D35E" transform="translate(6.10352e-05 3.05176e-05)" d="M622.308 483.066C622.427 482.9 622.55 482.738 622.665 482.569C625.142 478.941 627.112 475.089 629.794 471.548C637.316 461.615 648.806 455.384 660.927 453.007C674.905 450.266 689.996 453.627 701.756 461.612C713.463 469.562 722.248 483.063 724.747 496.998C727.247 510.936 723.68 526.655 715.474 538.18C707.121 549.91 695.675 557.752 681.392 560.11C668.754 562.196 657.733 560.45 646.115 555.29C638.975 560.579 632.776 567.878 626.561 574.22C618.908 582.03 611.046 589.598 603.241 597.253C599.962 600.468 596.713 604.488 593.064 607.214C592.122 607.637 591.171 608.098 590.373 608.762C583.965 614.088 578.44 620.939 572.596 626.883C561.583 638.085 550.283 649.032 539.42 660.378C536.656 654.153 530.091 649.126 526.352 643.237C525.549 641.971 523.455 638.735 524 637.279C525.313 633.776 531.199 629.579 533.922 626.907L559.587 601.393C563.465 597.546 568.598 593.437 571.708 589.03C572.162 588.386 572.264 587.809 572.435 587.058C574.799 583.034 588.718 570.64 592.898 566.541C604.104 555.57 615.165 544.452 626.08 533.191C624.705 531.171 623.532 529.126 622.49 526.918C615.698 512.525 617.008 497.666 622.308 483.066ZM667.145 481.478C653.098 483.425 643.293 496.397 645.251 510.443C647.21 524.489 660.19 534.284 674.235 532.314C688.263 530.346 698.044 517.384 696.088 503.354C694.131 489.324 681.177 479.533 667.145 481.478Z"/>
	<path fill="#74746E" transform="translate(6.10352e-05 3.05176e-05)" d="M281.17 561.911C287.496 554.7 295.096 548.148 301.991 541.429L333.453 510.296C341.915 502.062 350.333 493.783 358.706 485.459C363.713 480.469 368.609 474.971 374.002 470.414C374.245 470.307 374.491 470.208 374.73 470.092C379.375 467.847 382.399 460.835 387.409 459.967C390.17 461.522 397.394 478.653 398.394 482.66C398.767 484.154 399.104 485.444 398.295 486.838C395.734 491.252 388.138 495.226 386.359 499.73L386.444 500.088C370.138 517.703 352.265 534.014 335.319 551.018L308.583 577.781C304.364 581.959 300.177 586.647 295.577 590.39C295.956 589.215 296.149 588.585 297.102 587.771C297.693 587.267 297.931 587.087 298.322 586.357C298.683 585.681 298.589 585.901 298.384 585.129C297.528 584.649 296.681 584.24 295.795 583.821C291.796 577.103 285.873 567.761 287.507 559.551C287.7 558.582 287.808 557.807 287.758 556.804C286.191 558.332 283.857 561.189 281.804 561.805C281.598 561.866 281.381 561.876 281.17 561.911Z"/>
	<defs>
		<linearGradient id="gradient_4" gradientUnits="userSpaceOnUse" x1="528.20953" y1="500.86652" x2="441.88116" y2="573.31622">
			<stop offset="0" stop-color="#F0B753"/>
			<stop offset="1" stop-color="#A78C67"/>
		</linearGradient>
	</defs>
	<path fill="url(#gradient_4)" transform="translate(6.10352e-05 3.05176e-05)" d="M400.674 600.359C412.845 587.344 425.611 574.524 438.549 562.276C431.281 549.732 429.064 536.038 432.804 521.913C436.598 507.712 445.924 495.623 458.697 488.349C471.837 480.807 487.358 479.484 501.839 483.555C515.712 487.455 528.176 496.356 535.267 509.055C542.449 521.919 544.813 537.644 540.586 551.893C536.231 566.575 525.422 578.534 511.99 585.613C499.571 592.158 485.394 594.065 471.879 589.849C467.371 588.443 463.398 586.396 459.46 583.816C451.521 592.17 443.45 600.4 435.253 608.501C431.16 612.597 427.103 617.178 422.617 620.839C423.199 615.48 452.537 593.21 456.302 584.844C456.253 584.444 456.322 584.011 456.155 583.645C455.555 582.336 440.556 572.21 437.229 567.838C437.154 567.74 436.691 567.068 436.54 566.975C432.853 564.711 407.814 598.604 400.674 600.359ZM483.594 510.605C469.506 512.688 459.731 525.738 461.694 539.844C463.658 553.949 476.625 563.834 490.746 561.99C505.038 560.125 515.069 546.966 513.082 532.691C511.095 518.415 497.852 508.497 483.594 510.605Z"/>
	<path fill="#FEFDFB" transform="translate(6.10352e-05 3.05176e-05)" d="M674.235 532.314C660.19 534.284 647.21 524.489 645.251 510.443C643.293 496.397 653.098 483.425 667.145 481.478C681.177 479.533 694.131 489.324 696.088 503.354C698.044 517.384 688.263 530.346 674.235 532.314Z"/>
	<path fill="#FEFDFB" transform="translate(6.10352e-05 3.05176e-05)" d="M490.746 561.99C476.625 563.834 463.658 553.949 461.694 539.844C459.731 525.738 469.506 512.688 483.594 510.605C497.852 508.497 511.095 518.415 513.082 532.691C515.069 546.966 505.038 560.125 490.746 561.99Z"/>
	<path fill="#74746E" transform="translate(6.10352e-05 3.05176e-05)" d="M343.566 656.914C349.704 649.528 357.613 642.997 364.432 636.183C376.371 624.253 388.027 611.503 400.674 600.359C407.814 598.604 432.853 564.711 436.54 566.975C436.691 567.068 437.154 567.74 437.229 567.838C440.556 572.21 455.555 582.336 456.155 583.645C456.322 584.011 456.253 584.444 456.302 584.844C452.537 593.21 423.199 615.48 422.617 620.839C419.221 624.7 415.284 628.166 411.637 631.794L388.346 654.978L371.812 671.62C368.757 674.695 365.559 678.437 362.079 680.993C363.21 678.157 365.634 677.261 367.2 674.936C367.337 674.734 367.438 674.509 367.531 674.284C367.916 673.345 366.462 672.186 365.847 671.591C361.859 667.729 355.836 662.636 353.233 657.673C352.171 655.648 351.708 652.989 351.159 650.768C348.858 653.039 346.655 655.793 343.566 656.914Z"/>
	<defs>
		<linearGradient id="gradient_5" gradientUnits="userSpaceOnUse" x1="534.05573" y1="649.73322" x2="466.36993" y2="708.50195">
			<stop offset="0" stop-color="#A98D65"/>
			<stop offset="1" stop-color="#5F6971"/>
		</linearGradient>
	</defs>
	<path fill="url(#gradient_5)" transform="translate(6.10352e-05 3.05176e-05)" d="M439.088 719.93C443.222 714.601 448.772 709.963 453.571 705.195L483.368 675.598L540.906 618.346C551.324 607.965 561.464 596.83 572.435 587.058C572.264 587.809 572.162 588.386 571.708 589.03C568.598 593.437 563.465 597.546 559.587 601.393L533.922 626.907C531.199 629.579 525.313 633.776 524 637.279C523.455 638.735 525.549 641.971 526.352 643.237C530.091 649.126 536.656 654.153 539.42 660.378C550.283 649.032 561.583 638.085 572.596 626.883C578.44 620.939 583.965 614.088 590.373 608.762C591.171 608.098 592.122 607.637 593.064 607.214C565.131 636.057 536.884 664.594 508.327 692.82L485.582 715.563C478.743 722.287 471.607 728.916 465.238 736.087C464.261 737.186 464.076 737.822 463.85 739.255C463.749 739.893 463.629 740.525 463.531 741.165C463.379 740.054 463.099 738.669 463.361 737.566C464.862 731.247 477.365 725.411 479.648 719.784L479.1 718.897C470.549 715.265 465.89 706.999 460.044 700.401C455.49 705.032 444.195 717.6 439.088 719.93Z"/>
	<defs>
		<linearGradient id="gradient_6" gradientUnits="userSpaceOnUse" x1="708.45367" y1="655.8764" x2="583.55121" y2="791.7912">
			<stop offset="0" stop-color="#FCBA4B"/>
			<stop offset="1" stop-color="#727676"/>
		</linearGradient>
	</defs>
	<path fill="url(#gradient_6)" transform="translate(6.10352e-05 3.05176e-05)" d="M567.12 777.849C571.541 772.338 577.702 767.383 582.776 762.379L618.908 726.661C620.369 724.976 621.887 723.342 623.46 721.761C616.463 710.255 615.307 695.934 618.568 682.942C622.069 668.993 630.272 657.076 642.746 649.81C656.34 641.891 671.132 639.55 686.377 643.682C700.398 647.57 712.296 656.877 719.447 669.549C726.755 682.372 728.451 697.086 724.482 711.29C720.392 725.922 711.799 737.418 698.475 744.868C686.529 751.547 670.715 753.021 657.611 749.2C653.096 747.902 648.827 745.862 644.98 743.164C642.266 745.934 639.586 748.738 636.94 751.575C622.04 766.996 606.904 782.35 591.238 796.994C591.238 796.815 591.21 796.634 591.239 796.457C591.476 795.003 593.868 793.112 594.902 792.094C590.198 788.537 585.548 784.928 581.388 780.735C578.759 778.085 576.497 775.132 573.86 772.472C571.981 774.545 569.932 777.363 567.12 777.849ZM667.48 670.557C653.589 673.086 644.329 686.335 646.727 700.249C649.125 714.163 662.286 723.547 676.222 721.281C690.345 718.984 699.884 705.607 697.453 691.506C695.023 677.405 681.557 667.994 667.48 670.557Z"/>
	<path fill="#FEFDFB" transform="translate(6.10352e-05 3.05176e-05)" d="M676.222 721.281C662.286 723.547 649.125 714.163 646.727 700.249C644.329 686.335 653.589 673.086 667.48 670.557C681.557 667.994 695.023 677.405 697.453 691.506C699.884 705.607 690.345 718.984 676.222 721.281Z"/>
	<path fill="#395E79" transform="translate(6.10352e-05 3.05176e-05)" d="M432.554 754.78C431.935 749.057 432.17 742.445 432.445 736.679C432.737 730.53 434.336 724.201 439.088 719.93C444.195 717.6 455.49 705.032 460.044 700.401C465.89 706.999 470.549 715.265 479.1 718.897L479.648 719.784C477.365 725.411 464.862 731.247 463.361 737.566C463.099 738.669 463.379 740.054 463.531 741.165C464.069 749.794 464.36 767.329 463.487 775.754C461.072 781.175 464.521 788.904 462.73 794.593C462.564 793.181 462.128 791.681 460.798 790.91C458.679 789.681 455.356 789.666 452.974 788.878C445.588 786.435 437.621 780.388 433.067 774.114C432.799 767.989 434.042 760.659 432.554 754.78Z"/>
	<path fill="#0B4878" transform="translate(6.10352e-05 3.05176e-05)" d="M432.554 754.78C434.042 760.659 432.799 767.989 433.067 774.114C437.621 780.388 445.588 786.435 452.974 788.878C455.356 789.666 458.679 789.681 460.798 790.91C462.128 791.681 462.564 793.181 462.73 794.593C464.521 788.904 461.072 781.175 463.487 775.754L463.564 799.59L469.858 799.631L469.433 800.011C466.506 800.478 463.278 799.961 460.3 799.955C450.951 799.937 441.55 800.183 432.226 799.388C432.565 784.527 432.365 769.646 432.554 754.78Z"/>
	<path fill="#395E79" transform="translate(6.10352e-05 3.05176e-05)" d="M547.146 799.487C549.787 793.439 561.748 782.385 567.12 777.849C569.932 777.363 571.981 774.545 573.86 772.472C576.497 775.132 578.759 778.085 581.388 780.735C585.548 784.928 590.198 788.537 594.902 792.094C593.868 793.112 591.476 795.003 591.239 796.457C591.21 796.634 591.238 796.815 591.238 796.994C590.635 797.895 590.024 798.791 589.432 799.698C597.712 799.611 606.004 799.429 614.283 799.626C608.667 801.191 592.708 800.089 586.273 799.967C573.233 799.658 560.19 799.499 547.146 799.487Z"/>
</svg>
